<svg width="2500" height="2500" viewBox="0 0 2500 2500" fill="none" xmlns="http://www.w3.org/2000/svg">
<g clip-path="url(#clip0_223_2)">
<path fill-rule="evenodd" clip-rule="evenodd" d="M787.239 746.086H494.252C433.67 746.086 397.692 775.501 386.279 834.319C374.852 893.124 407.341 957.649 483.72 1027.88C530.022 1064.31 522.137 1081.65 460.025 1079.9H197.984V1221.44H612.757C681.224 1210.04 716.113 1174.92 717.436 1116.1C718.759 1057.28 683.857 996.713 612.757 934.381C573.043 901.464 581.383 885.887 637.775 887.638H881.257V1221.43H1035.99V887.638H1186.76V746.086H787.239ZM1157.36 1221.43L1313.72 746.086H1549.76L1708.77 1221.43H1529.02L1499.07 1135.84H1357.84L1327.87 1221.43H1157.36ZM1432.25 851.426L1364.11 1039.73H1495.13L1432.25 851.426Z" fill="white"/>
<path fill-rule="evenodd" clip-rule="evenodd" d="M1701.75 1221.43V746.086H2011.17C2049.37 749.601 2080.75 759.678 2105.33 776.37C2129.92 793.049 2147.91 815.435 2159.34 843.528C2168.1 885.666 2168.53 918.143 2160.63 940.969C2152.73 963.796 2138.92 982.888 2119.17 998.257C2099.42 1013.61 2071.09 1025.69 2034.26 1034.46L2069.77 1079.9H2302.03V1221.44H2024.35L1873.57 1064.42V1221.44L1701.75 1221.43ZM1873.57 864.591V952.149H1993.41C1999.77 952.149 2006.68 949.802 2014.14 945.081C2021.61 940.36 2025.57 928.467 2026.02 909.362C2024.9 891.153 2020.44 879.13 2012.67 873.319C2004.87 867.509 1998.34 864.603 1993.09 864.603L1873.57 864.591ZM547.584 1552.47L497.546 1753.93H342.817L197.984 1278.56H352.7L417.873 1484L474.486 1278.56H616.699L682.884 1484L726.994 1278.56H881.711L762.544 1753.93H607.815L547.584 1552.47ZM810.714 1753.93L967.078 1278.56H1203.11L1362.12 1753.93H1182.36L1152.42 1668.33H1011.2L981.228 1753.93H810.714ZM1085.6 1383.91L1017.45 1572.21H1148.47L1085.6 1383.91Z" fill="white"/>
<path fill-rule="evenodd" clip-rule="evenodd" d="M2123.45 1420.11L2300.99 1419.37V1277.82L1979.91 1278.56C1919.32 1278.56 1883.35 1307.97 1871.93 1366.79C1860.53 1425.61 1893 1490.14 1969.38 1560.35C2015.68 1596.81 2007.78 1614.13 1945.67 1612.39H1723.14L1687.57 1566.94C1724.46 1558.17 1752.77 1546.1 1772.54 1530.74C1792.27 1515.36 1806.1 1496.3 1814 1473.47C1821.88 1450.62 1821.45 1418.14 1812.68 1376.01C1801.28 1347.92 1783.26 1325.55 1758.7 1308.86C1734.11 1292.16 1702.75 1282.09 1664.54 1278.56H1355.08V1753.93H1526.93V1596.9L1677.7 1753.93H2098.42C2166.91 1742.5 2201.77 1707.39 2203.08 1648.57C2204.39 1589.76 2169.52 1529.19 2098.42 1466.87C2058.72 1433.95 2067.03 1418.36 2123.45 1420.11ZM1667.5 1477.57C1660.03 1482.28 1653.14 1484.66 1646.75 1484.66H1526.93V1397.09H1646.42C1651.71 1397.09 1658.22 1399.98 1666.01 1405.81C1673.81 1411.63 1678.26 1423.64 1679.35 1441.85C1678.9 1460.95 1674.98 1472.86 1667.5 1477.57Z" fill="white"/>
</g>
<defs>
<clipPath id="clip0_223_2">
<rect width="2500" height="2500" fill="white"/>
</clipPath>
</defs>
</svg>
